<svg xmlns="http://www.w3.org/2000/svg" viewBox="0 0 50 50"><defs><style>.cls-1{fill:#fff;}.cls-2{fill:#0094ad;}</style></defs><title>active_arrowlink</title><g id="Layer_2" data-name="Layer 2"><g id="Layer_1-2" data-name="Layer 1"><path class="cls-1" d="M25,1A24,24,0,1,1,1,25,24,24,0,0,1,25,1m0-1A25,25,0,1,0,50,25,25,25,0,0,0,25,0Z"/><path class="cls-2" d="M25,1A24,24,0,1,1,1,25,24,24,0,0,1,25,1"/><path class="cls-1" d="M24.66,18.41a.69.69,0,0,1,.53-.22.71.71,0,0,1,.53.22l6.06,6.06a.75.75,0,0,1,0,1.06l-6.06,6.06a.71.71,0,0,1-.53.22.69.69,0,0,1-.53-.22L24,30.91a.65.65,0,0,1-.24-.53.79.79,0,0,1,.24-.54l3.75-3.59h-9A.75.75,0,0,1,18,25.5v-1a.75.75,0,0,1,.75-.75h9L24,20.16a.79.79,0,0,1-.24-.54.65.65,0,0,1,.24-.53Z"/></g></g></svg>