<svg xmlns="http://www.w3.org/2000/svg" viewBox="0 0 139.97 14.01"><defs><style>.cls-1{fill:#fff;}</style></defs><title>madeby</title><g id="Layer_2" data-name="Layer 2"><g id="Layer_1-2" data-name="Layer 1"><g id="artwork"><path class="cls-1" d="M130.58,0a8,8,0,0,0-2.68,6q0,.4,0,.81a8.77,8.77,0,0,1,5.27,0q0-.4,0-.81A8,8,0,0,0,130.58,0Z"/><path class="cls-1" d="M111.57,3.9H113L114.54,9c.11.37.17.77.19.77h0c0-.26.11-.52.18-.77l1.57-5.06h1.28L119.35,9c.11.37.2.77.2.77h0a5,5,0,0,1,.17-.77l1.51-5.08h1.46l-2.33,7.24h-1.53l-1.5-4.65a7,7,0,0,1-.2-.79h0s-.09.42-.2.79l-1.49,4.65H113.9Z"/><path class="cls-1" d="M89.27,3.73a3.08,3.08,0,0,1,3.15,3c0,.13,0,.25,0,.38v.6H87.08a2.36,2.36,0,0,0,2.33,2.39h.16a3.45,3.45,0,0,0,2.14-.84l.58,1a4.35,4.35,0,0,1-2.81,1,3.69,3.69,0,0,1-3.83-3.53V7.48A3.56,3.56,0,0,1,89,3.73ZM91,6.68a1.7,1.7,0,0,0-1.54-1.84h-.2a2.08,2.08,0,0,0-2.12,1.85Z"/><path class="cls-1" d="M82.39,1h1.38V8.92c0,.88.35,1,.78,1h.24v1.23h-.46c-.78,0-1.94-.22-1.94-2Z"/><path class="cls-1" d="M51.81,9.27a3.07,3.07,0,0,0,2.07.84c.6,0,1.2-.31,1.2-.9,0-1.33-3.72-1.06-3.72-3.42,0-1.32,1.18-2.06,2.62-2.06a3.26,3.26,0,0,1,2.33.8l-.55,1A2.63,2.63,0,0,0,54,4.93c-.6,0-1.19.26-1.19.89,0,1.3,3.72,1,3.72,3.39,0,1.2-1,2.1-2.62,2.1a3.87,3.87,0,0,1-2.74-1.06Z"/><path class="cls-1" d="M61.36,3.9h1.35v1a4.69,4.69,0,0,1,0,.53h0a2.82,2.82,0,0,1,2.49-1.7,2,2,0,0,1,2.17,1.65h0A2.89,2.89,0,0,1,70,3.73c1.63,0,2.39.93,2.39,2.78v4.63H71V6.81c0-1-.2-1.82-1.28-1.82a2.24,2.24,0,0,0-2,1.84,3.74,3.74,0,0,0-.1,1v3.3H66.17V6.81C66.17,5.86,66,5,64.91,5a2.28,2.28,0,0,0-2.07,1.9,3.36,3.36,0,0,0-.09,1v3.3H61.36Z"/><path class="cls-1" d="M74.08,3.9h1.27v.62a4.69,4.69,0,0,1,0,.53h0a2.63,2.63,0,0,1,2.43-1.32c2,0,3.18,1.55,3.18,3.79s-1.39,3.79-3.28,3.79a2.52,2.52,0,0,1-2.22-1.19h0V14H74.08Zm3.39,6.22c1.14,0,2.09-.94,2.09-2.58S78.71,5,77.51,5s-2.09.75-2.09,2.6A2.28,2.28,0,0,0,77.47,10.12Z"/><path class="cls-1" d="M58.09,3.9h1.39v7.24H58.09Z"/><circle class="cls-1" cx="58.79" cy="1.9" r="0.86"/><path class="cls-1" d="M107.72,3.73a3.08,3.08,0,0,1,3.15,3c0,.13,0,.25,0,.38v.6h-5.28a2.36,2.36,0,0,0,2.33,2.39h.1a3.45,3.45,0,0,0,2.14-.84l.58,1a4.35,4.35,0,0,1-2.81,1,3.69,3.69,0,0,1-3.83-3.53V7.48a3.56,3.56,0,0,1,3.34-3.75Zm1.71,2.95a1.7,1.7,0,0,0-1.54-1.84h-.2a2.08,2.08,0,0,0-2.12,1.85Z"/><path class="cls-1" d="M93.11,3.9h1.48l1.76,4.89a8.56,8.56,0,0,1,.24,1h0a8.64,8.64,0,0,1,.26-1L98.64,3.9h1.45l-2.67,7.24h-1.6Z"/><path class="cls-1" d="M101.4,3.9h1.39v7.24H101.4Z"/><circle class="cls-1" cx="102.1" cy="1.9" r="0.86"/><path class="cls-1" d="M139.32,11.27a.64.64,0,1,1-.63.65h0a.63.63,0,0,1,.62-.64Zm0,1.16a.52.52,0,1,0-.5-.54v0a.51.51,0,0,0,.5.52Zm-.22-.85h.26a.19.19,0,0,1,.21.17v0a.17.17,0,0,1-.12.17h0l.13.25h-.14l-.13-.26h-.1v.26h-.13Zm.23.31a.11.11,0,1,0,0-.22h-.1v.22Z"/><path class="cls-1" d="M133.83,7.86a8.88,8.88,0,0,1-2.64,4.61,8,8,0,0,0,7.24,1.13A8,8,0,0,0,133.83,7.86Z"/><path class="cls-1" d="M122.72,13.6A8.05,8.05,0,0,0,130,12.47a8.77,8.77,0,0,1-2.63-4.6A8,8,0,0,0,122.72,13.6Z"/><path class="cls-1" d="M128.22,7.67a7.74,7.74,0,0,0,2.36,4.12,7.87,7.87,0,0,0,2.35-4.12A7.73,7.73,0,0,0,128.22,7.67Z"/><path class="cls-1" d="M.06,10.26H1V6.35C1,6.18.89,6.1.72,6.1H0V5.23H1.33c.5,0,.75.22.75.65v.3a1.93,1.93,0,0,1,0,.34h0a2.44,2.44,0,0,1,2.1-1.43A1.58,1.58,0,0,1,5.9,6.48h0A2.4,2.4,0,0,1,8,5.09c1.31,0,1.93.76,1.93,2.26v2.91h.93v.88h-2V7.6c0-.83-.15-1.49-1-1.49-1.11,0-1.74,1.14-1.74,2.31v1.84H7v.88H4.92V7.6c0-.77-.12-1.49-1-1.49-1.12,0-1.78,1.2-1.78,2.35v1.8h.94v.88h-3Z"/><path class="cls-1" d="M15,7.51h.38V7.28A1.11,1.11,0,0,0,14.45,6a1.21,1.21,0,0,0-.38,0,3.15,3.15,0,0,0-1.7.57l-.45-.8a3.74,3.74,0,0,1,2.24-.7,2,2,0,0,1,2.3,1.65,2.22,2.22,0,0,1,0,.63V10a.23.23,0,0,0,.21.25h.64v.88H16.13c-.52,0-.73-.26-.73-.64V10.4a1.21,1.21,0,0,1,0-.38h0a2.15,2.15,0,0,1-2,1.25,1.8,1.8,0,0,1-2-1.59,1.34,1.34,0,0,1,0-.2C11.51,7.63,14,7.51,15,7.51ZM13.72,10.4a1.82,1.82,0,0,0,1.62-1.91V8.24h-.29c-.54,0-2.4,0-2.4,1.16a1,1,0,0,0,1,1Z"/><path class="cls-1" d="M20.48,5.09a2,2,0,0,1,1.82,1h0a3.23,3.23,0,0,1,0-.44V3.77h-1V2.89h2.12V10a.22.22,0,0,0,.19.25h.66v.88H23.1c-.53,0-.74-.26-.74-.64V10.4a.81.81,0,0,1,0-.31h0a2.1,2.1,0,0,1-2,1.18c-1.59,0-2.59-1.26-2.59-3.1A2.77,2.77,0,0,1,20.48,5.09Zm.14,5.21c.88,0,1.71-.63,1.71-2.11,0-1.08-.55-2.11-1.67-2.11-.95,0-1.71.76-1.71,2.1S19.64,10.3,20.62,10.3Z"/><path class="cls-1" d="M27.75,5.09a2.5,2.5,0,0,1,2.57,2.45,1.74,1.74,0,0,1,0,.32v.43H26a2,2,0,0,0,2,2h.05a2.83,2.83,0,0,0,1.76-.67l.47.83a3.64,3.64,0,0,1-2.3.82A3,3,0,0,1,24.85,8.4V8.17A2.89,2.89,0,0,1,27.54,5.1Zm1.39,2.47A1.43,1.43,0,0,0,27.85,6h-.12A1.74,1.74,0,0,0,26,7.56Z"/><path class="cls-1" d="M34.72,3.77h-1V2.89h2.13V5.62a4,4,0,0,1,0,.49h0a2.12,2.12,0,0,1,1.9-1c1.6,0,2.61,1.26,2.61,3.09a2.8,2.8,0,0,1-2.7,3.1,2.07,2.07,0,0,1-1.87-1.08h0a3.69,3.69,0,0,1,0,.47v.47H34.72ZM37.5,10.3c.92,0,1.69-.76,1.69-2.11s-.69-2.11-1.67-2.11-1.7.62-1.7,2.13C35.82,9.26,36.36,10.3,37.5,10.3Z"/><path class="cls-1" d="M42.18,12.65a1.22,1.22,0,0,0,1.09-.82l.24-.59L41.44,6.1H40.7V5.23h2.7V6.1h-.79l1.32,3.52a2.33,2.33,0,0,1,.11.51h0a4.84,4.84,0,0,1,.14-.51L45.52,6.1h-.76V5.23h2.62V6.1h-.74l-2.33,6a2.19,2.19,0,0,1-2.08,1.52,2.46,2.46,0,0,1-1.23-.4l.39-.85A1.4,1.4,0,0,0,42.18,12.65Z"/></g></g></g></svg>