<svg xmlns="http://www.w3.org/2000/svg" viewBox="0 0 104 104"><defs><style>.cls-1{fill:#fff;}</style></defs><title>play_btn</title><g id="Layer_2" data-name="Layer 2"><g id="Layer_1-2" data-name="Layer 1"><path class="cls-1" d="M52,4A48,48,0,1,1,4,52,48.05,48.05,0,0,1,52,4m0-4a52,52,0,1,0,52,52A52,52,0,0,0,52,0Z"/><path class="cls-1" d="M70.05,49.13a3.18,3.18,0,0,1,1.52,1.76,3.47,3.47,0,0,1,0,2.25,3.16,3.16,0,0,1-1.52,1.75L45.3,69.52a3.18,3.18,0,0,1-2.25.42,3.44,3.44,0,0,1-2-1.12,3.18,3.18,0,0,1-.81-2.18V37.39a3.18,3.18,0,0,1,.84-2.29,3.43,3.43,0,0,1,2-1.05,3.06,3.06,0,0,1,2.18.45Z"/></g></g></svg>